HIERARCHY
ROOT joint_Root
{
	OFFSET 0.0 0.0 0.0
	CHANNELS 6 Xposition Yposition Zposition Zrotation Xrotation Yrotation 
	JOINT Hips
	{
		OFFSET 4.5925 91.4895 -427.239
		CHANNELS 6 Xposition Yposition Zposition Zrotation Xrotation Yrotation 
		JOINT Spine
		{
			OFFSET 15.7357 0.0 0.0
			CHANNELS 6 Xposition Yposition Zposition Zrotation Xrotation Yrotation 
			JOINT Chest
			{
				OFFSET 8.98455 -0.406207 0.0
				CHANNELS 6 Xposition Yposition Zposition Zrotation Xrotation Yrotation 
				JOINT Neck
				{
					OFFSET 16.3773 0.0 0.0
					CHANNELS 6 Xposition Yposition Zposition Zrotation Xrotation Yrotation 
					JOINT Head
					{
						OFFSET 6.45672 0.0 0.0
						CHANNELS 6 Xposition Yposition Zposition Zrotation Xrotation Yrotation 
						End Site
						{
							OFFSET 0.0 0.0 0.0
						}
					}
				}
				JOINT Shoulder_L
				{
					OFFSET 12.9942 -0.242716 4.98039
					CHANNELS 6 Xposition Yposition Zposition Zrotation Xrotation Yrotation 
					JOINT UpperArm_L
					{
						OFFSET 5.34809 0.0 0.0
						CHANNELS 6 Xposition Yposition Zposition Zrotation Xrotation Yrotation 
						JOINT LowerArm_L
						{
							OFFSET 24.3286 1.87007e-05 0.0
							CHANNELS 6 Xposition Yposition Zposition Zrotation Xrotation Yrotation 
							JOINT Hand_L
							{
								OFFSET 22.2916 0.0 0.0
								CHANNELS 6 Xposition Yposition Zposition Zrotation Xrotation Yrotation 
								End Site
								{
									OFFSET 0.0 0.0 0.0
								}
							}
						}
					}
				}
				JOINT Shoulder_R
				{
					OFFSET 12.9945 -0.242716 -4.98039
					CHANNELS 6 Xposition Yposition Zposition Zrotation Xrotation Yrotation 
					JOINT UpperArm_R
					{
						OFFSET -5.34813 0.0 0.0
						CHANNELS 6 Xposition Yposition Zposition Zrotation Xrotation Yrotation 
						JOINT LowerArm_R
						{
							OFFSET -24.3289 0.000322201 0.0
							CHANNELS 6 Xposition Yposition Zposition Zrotation Xrotation Yrotation 
							JOINT Hand_R
							{
								OFFSET -22.2915 -0.000108084 0.0
								CHANNELS 6 Xposition Yposition Zposition Zrotation Xrotation Yrotation 
								End Site
								{
									OFFSET 0.0 0.0 0.0
								}
							}
						}
					}
				}
			}
		}
		JOINT UpperLeg_L
		{
			OFFSET -2.19248 -6.46944 0.0
			CHANNELS 6 Xposition Yposition Zposition Zrotation Xrotation Yrotation 
			JOINT LowerLeg_L
			{
				OFFSET 39.0811 0.0 -1.23785e-05
				CHANNELS 6 Xposition Yposition Zposition Zrotation Xrotation Yrotation 
				JOINT Foot_L
				{
					OFFSET 40.9854 0.0 -1.26872e-05
					CHANNELS 6 Xposition Yposition Zposition Zrotation Xrotation Yrotation 
					JOINT Toes_L
					{
						OFFSET 11.7543 0.0 0.0
						CHANNELS 6 Xposition Yposition Zposition Zrotation Xrotation Yrotation 
						End Site
						{
							OFFSET 0.0 0.0 0.0
						}
					}
				}
			}
		}
		JOINT UpperLeg_R
		{
			OFFSET -2.19251 6.46944 0.0
			CHANNELS 6 Xposition Yposition Zposition Zrotation Xrotation Yrotation 
			JOINT LowerLeg_R
			{
				OFFSET -39.0811 -0.00228153 -0.0401928
				CHANNELS 6 Xposition Yposition Zposition Zrotation Xrotation Yrotation 
				JOINT Foot_R
				{
					OFFSET -40.9854 0.0 0.0
					CHANNELS 6 Xposition Yposition Zposition Zrotation Xrotation Yrotation 
					JOINT Toes_R
					{
						OFFSET -11.7543 0.0 0.0
						CHANNELS 6 Xposition Yposition Zposition Zrotation Xrotation Yrotation 
						End Site
						{
							OFFSET 0.0 0.0 0.0
						}
					}
				}
			}
		}
	}
}
MOTION
Frames:	4
Frame Time:	0.0333333
0.000000 0.000000 0.000000 0.000000 0.000000 -0.000000 -1.214160 84.174700 0.446210 86.268100 -5.427910 13.989800 15.735700 0.000005 -0.000001 88.099900 80.269700 -86.029200 8.984550 -0.406207 -0.000000 11.698000 -0.568903 4.198290 16.377300 -0.000001 -0.000001 -1.356020 -0.192666 2.108940 6.456720 -0.000001 -0.000000 -5.409480 3.931170 -2.046020 12.994200 -0.242716 4.980390 -91.261100 4.245210 -73.439100 5.348090 -0.000007 -0.000001 -65.288100 32.144600 -11.002600 24.328600 0.000019 0.000005 8.273210 12.595700 -33.694400 22.291600 -0.000001 0.000005 14.929900 5.232150 1.899530 12.994500 -0.242716 -4.980390 87.428300 12.088900 -77.895200 -5.348130 -0.000001 -0.000004 -61.108000 3.847510 -6.167090 -24.328900 0.000322 -0.000009 -1.659930 -10.438700 -9.059780 -22.291500 -0.000108 -0.000004 17.911500 5.275300 0.794576 -2.192480 -6.469440 -0.000000 -170.739000 -8.385680 -7.825400 39.081100 -0.000007 -0.000012 -0.605526 0.396073 56.812800 40.985400 -0.000006 -0.000013 -1.813480 0.693220 -84.426300 11.754300 -0.000000 0.000003 -0.000394 -0.003268 -16.698100 -2.192510 6.469440 -0.000001 178.991000 12.499400 172.220000 -39.081100 -0.002282 -0.040193 0.067896 -0.044728 55.331400 -40.985400 0.000008 0.000006 6.353020 4.583520 -83.108000 -11.754300 -0.000006 -0.000006 -0.000953 -0.014743 -17.172700
0.000000 0.000000 0.000000 0.000000 0.000000 -0.000000 -1.562140 85.697800 0.759557 86.177800 -3.236330 12.499300 15.735700 0.000005 -0.000001 88.935600 81.541200 -87.703800 8.984550 -0.406207 -0.000000 9.153070 -0.297670 2.485220 16.377300 -0.000001 -0.000001 -0.523160 -0.520416 1.900560 6.456720 -0.000001 -0.000000 -4.443340 2.799490 -1.367510 12.994200 -0.242716 4.980390 -91.247400 4.043690 -72.840000 5.348090 -0.000007 -0.000001 -66.058600 31.088400 -9.553640 24.328600 0.000019 0.000005 7.949710 12.568200 -32.689900 22.291600 -0.000001 0.000005 14.277200 5.246930 1.512800 12.994500 -0.242716 -4.980390 87.587000 10.717400 -77.231200 -5.348130 -0.000001 -0.000004 -59.506000 -1.487580 -8.093370 -24.328900 0.000322 -0.000009 -0.685408 -7.115860 -5.503280 -22.291500 -0.000108 -0.000004 13.088600 5.221290 2.203060 -2.192480 -6.469440 -0.000000 -170.979000 -7.125700 -7.303880 39.081100 -0.000007 -0.000012 -0.523506 0.407424 52.109100 40.985400 -0.000006 -0.000013 -1.752020 1.347660 -81.983300 11.754300 -0.000000 0.000003 -0.000336 -0.002860 -16.683700 -2.192510 6.469440 -0.000001 179.068000 14.703100 173.535000 -39.081100 -0.002282 -0.040193 0.064516 -0.050605 50.445700 -40.985400 0.000008 0.000006 6.425760 4.873180 -80.807200 -11.754300 -0.000006 -0.000006 -0.001396 -0.020885 -17.422400
0.000000 0.000000 0.000000 0.000000 0.000000 -0.000000 -1.582110 87.414600 0.935141 86.695800 -1.973740 10.205400 15.735700 0.000005 -0.000001 88.645000 83.184900 -88.560700 8.984550 -0.406207 -0.000000 5.860620 -0.322885 0.185073 16.377300 -0.000001 -0.000001 0.967826 -0.431540 1.853440 6.456720 -0.000001 -0.000000 -3.136690 2.044610 -0.698396 12.994200 -0.242716 4.980390 -91.078500 3.274210 -71.753800 5.348090 -0.000007 -0.000001 -67.497300 29.009700 -6.825230 24.328600 0.000019 0.000005 7.971410 13.163800 -31.587200 22.291600 -0.000001 0.000005 13.113700 5.256230 1.267540 12.994500 -0.242716 -4.980390 87.914600 8.804980 -76.618200 -5.348130 -0.000001 -0.000004 -55.824200 -9.086660 -13.674300 -24.328900 0.000322 -0.000009 -0.669505 -6.767640 -5.652590 -22.291500 -0.000108 -0.000004 8.937400 5.152140 3.905870 -2.192480 -6.469440 -0.000000 -171.890000 -7.106420 -6.855680 39.081100 -0.000007 -0.000012 -0.435446 0.418782 46.118600 40.985400 -0.000006 -0.000013 -1.477430 1.990720 -78.877800 11.754300 -0.000000 0.000003 -0.000275 -0.002420 -16.668000 -2.192510 6.469440 -0.000001 178.983000 15.565400 174.081000 -39.081100 -0.002282 -0.040193 0.052617 -0.049807 44.737000 -40.985400 0.000008 0.000006 5.968360 5.119720 -77.732000 -11.754300 -0.000006 -0.000006 -0.114400 -0.156873 -17.590400
0.000000 0.000000 0.000000 0.000000 0.000000 -0.000000 -1.298540 88.851300 1.021240 87.326900 -1.728290 8.301060 15.735700 0.000005 -0.000001 87.962300 84.593600 -88.834600 8.984550 -0.406207 -0.000000 3.037880 -0.348107 -1.733470 16.377300 -0.000001 -0.000001 2.593230 -0.162989 1.485550 6.456720 -0.000001 -0.000000 -2.061070 1.616580 -0.687463 12.994200 -0.242716 4.980390 -90.913400 2.592730 -70.585200 5.348090 -0.000007 -0.000001 -68.724300 26.203900 -3.953970 24.328600 0.000019 0.000005 7.808550 13.735400 -30.008600 22.291600 -0.000001 0.000005 11.967500 5.250120 1.429550 12.994500 -0.242716 -4.980390 88.390300 6.756080 -76.565200 -5.348130 -0.000001 -0.000004 -51.154900 -17.944300 -23.049800 -24.328900 0.000322 -0.000009 -1.596750 -10.597300 -8.592010 -22.291500 -0.000108 -0.000004 8.543070 5.166540 3.564270 -2.192480 -6.469440 -0.000000 -172.945000 -7.923300 -5.983250 39.081100 -0.000007 -0.000012 -0.342339 0.402043 40.415100 40.985400 -0.000006 -0.000013 -1.120900 2.412190 -75.986800 11.754300 -0.000000 0.000003 -0.000229 -0.002076 -16.655600 -2.192510 6.469440 -0.000001 178.736000 15.309400 174.695000 -39.081100 -0.002282 -0.040193 0.043929 -0.049385 39.458000 -40.985400 0.000008 0.000006 5.668850 5.241980 -74.928100 -11.754300 -0.000006 -0.000006 -0.002167 -0.030788 -17.825100
